Coordinates
version=1
nRows=17
nColumns=23
inDegrees=yes

Units are S.I. units (second, meters, Newtons, ...)
If the header above contains a line with 'inDegrees', this indicates whether rotational values are in degrees (yes) or radians (no).

endheader
time	pelvis_tilt	pelvis_list	pelvis_rotation	pelvis_tx	pelvis_ty	pelvis_tz	hip_flexion_r	hip_adduction_r	hip_rotation_r	knee_angle_r	knee_angle_r_beta	ankle_angle_r	subtalar_angle_r	mtp_angle_r	hip_flexion_l	hip_adduction_l	hip_rotation_l	knee_angle_l	knee_angle_l_beta	ankle_angle_l	subtalar_angle_l	mtp_angle_l
      0.00000000	     -6.68904208	      0.36841807	      2.83682019	      2.25328492	      0.95612615	      0.99449935	     42.82421759	     -3.13744759	     -1.89690789	     87.67794481	      1.53026882	     -2.36232540	    -15.10024174	      0.00000000	     -6.84945794	      1.01459865	     -2.65445484	     21.51984201	      0.37559210	      6.42601769	      4.90065492	      0.00000000
      0.00666667	     -7.05809099	      0.28684924	      2.37775855	      2.25457780	      0.95986486	      0.99502166	     43.70450740	     -2.80586081	     -1.94311781	     84.74531560	      1.47908478	     -2.18747610	    -15.04779387	      0.00000000	     -7.82456986	      0.77228440	     -3.84458002	     20.71374368	      0.36152303	      2.06120018	      5.13189700	      0.00000000
      0.01333333	     -7.48510337	      0.01670443	      2.14869731	      2.25607646	      0.96348083	      0.99518546	     44.39357199	     -2.47986360	     -2.31346104	     81.58470457	      1.42392171	     -1.89868135	    -15.01039118	      0.00000000	     -8.69107330	      0.31640762	     -4.87591138	     19.97035999	      0.34854853	     -2.29763899	      5.12898726	      0.00000000
      0.02000000	     -8.37187586	     -0.02987392	      2.18726966	      2.25731172	      0.96621279	      0.99498211	     45.48226151	     -2.59465538	     -2.75538094	     78.40638482	      1.36844957	     -1.50165299	    -14.73627627	      0.00000000	     -8.78950340	      0.03972032	     -5.74440575	     19.73086780	      0.34436861	     -6.33278080	      5.55379517	      0.00000000
      0.02666667	     -7.99772391	     -0.58819821	      1.96638441	      2.25909219	      0.97072602	      0.99519134	     44.85465683	     -1.91521688	     -3.32650281	     74.70026248	      1.30376553	     -1.29922768	    -14.72656611	      0.00000000	    -10.58137742	     -0.64133446	     -6.41248564	     18.75492829	      0.32733525	    -10.67826248	      4.80565898	      0.00000000
      0.03333333	     -8.72054505	     -0.50840259	      1.84856147	      2.26021200	      0.97316305	      0.99527983	     45.52398097	     -1.93025465	     -3.54025089	     71.22786635	      1.24316079	     -0.91211319	    -14.20779688	      0.00000000	    -10.67692125	     -0.76078677	     -7.31998436	     18.82201328	      0.32850610	    -14.28556847	      4.88368554	      0.00000000
      0.04000000	     -9.30873781	     -0.34912035	      1.69899974	      2.26130653	      0.97544552	      0.99546388	     45.92554029	     -1.98511723	     -3.72898469	     67.60968894	      1.18001168	     -0.55272214	    -13.66279700	      0.00000000	    -10.82499650	     -0.79363453	     -8.17458901	     19.05019644	      0.33248865	    -17.63286205	      4.79556761	      0.00000000
      0.04666667	     -8.92961153	     -0.72055564	      1.64727169	      2.26273502	      0.97905099	      0.99551418	     44.92360720	     -1.60665189	     -4.39630534	     63.49153255	      1.10813629	     -0.25304597	    -13.06279743	      0.00000000	    -12.03080355	     -1.33480095	     -8.59018228	     19.18944752	      0.33491904	    -20.68432757	      4.16057339	      0.00000000
      0.05333333	     -9.21506412	     -0.57699334	      1.48636092	      2.26361011	      0.98112009	      0.99580235	     44.73126907	     -1.60746148	     -4.66348805	     59.52926690	      1.03898171	      0.14767697	    -12.11075924	      0.00000000	    -12.18801247	     -1.38280513	     -9.17530446	     20.03561331	      0.34968742	    -23.18719272	      3.90440040	      0.00000000
      0.06000000	     -9.72187701	     -0.17577129	      1.20723467	      2.26411723	      0.98240179	      0.99638736	     44.77302201	     -1.69873219	     -4.65149037	     55.56763809	      0.96983824	      0.57692215	    -10.99062072	      0.00000000	    -11.93504528	     -1.13197139	     -9.63183903	     21.24893466	      0.37086387	    -25.29504849	      3.55392644	      0.00000000
      0.06666667	     -9.75582308	     -0.16363131	      1.11766003	      2.26482500	      0.98408759	      0.99671001	     44.03584171	     -1.63596168	     -5.21281404	     51.32335162	      0.89576147	      1.10605296	     -9.41734868	      0.00000000	    -12.04843298	     -1.33365531	     -9.83242159	     22.74401072	      0.39695787	    -26.83926594	      3.37266172	      0.00000000
      0.07333333	    -10.09970417	      0.14905416	      0.82035885	      2.26509559	      0.98476480	      0.99746373	     43.68403898	     -1.58893772	     -5.30555216	     47.18320861	      0.82350234	      1.67150963	     -7.79799492	      0.00000000	    -11.70101931	     -1.14128669	     -9.89930034	     24.52648673	      0.42806795	    -28.05029483	      2.93602483	      0.00000000
      0.08000000	    -10.02128885	      0.11748873	      0.69337381	      2.26556290	      0.98581672	      0.99805894	     42.64313950	     -1.38987050	     -5.90919329	     42.85632176	      0.74798392	      2.32922867	     -5.55118743	      0.00000000	    -11.73164436	     -1.31348159	     -9.66222534	     26.44296119	      0.46151674	    -28.70370448	      2.93049282	      0.00000000
      0.08666667	    -10.11458734	      0.19872951	      0.46695621	      2.26576426	      0.98605828	      0.99881281	     41.79693637	     -1.12763288	     -6.20734440	     38.66331586	      0.67480216	      3.05400145	     -3.39062596	      0.00000000	    -11.44911781	     -1.30333523	     -9.30061045	     28.63398443	      0.49975731	    -29.05269398	      2.63160071	      0.00000000
      0.09333333	    -10.12326851	      0.19162465	      0.25692447	      2.26593633	      0.98602838	      0.99960310	     40.77967404	     -0.73939257	     -6.47183045	     34.54075320	      0.60284987	      3.75489281	     -1.12748810	      0.00000000	    -11.16788603	     -1.34504477	     -8.78653932	     30.99001260	      0.54087776	    -28.98809465	      2.41638005	      0.00000000
      0.10000000	    -10.17401781	      0.17715932	      0.05014431	      2.26601512	      0.98548632	      1.00038613	     39.79162155	     -0.27490961	     -6.52850932	     30.62009657	      0.53442150	      4.44135687	      0.95970134	      0.00000000	    -10.73859274	     -1.34982746	     -8.17333375	     33.52581369	      0.58513583	    -28.74260960	      2.09634336	      0.00000000
      0.10666667	     -9.95629069	     -0.02095786	     -0.14768369	      2.26625955	      0.98490991	      1.00105392	     38.44556134	      0.35093039	     -6.64812363	     26.88484382	      0.46922904	      5.04460959	      3.04378867	      0.00000000	    -10.54911081	     -1.53409623	     -7.63804977	     36.14831246	      0.63090707	    -28.27016081	      1.80158768	      0.00000000
